<svg xmlns="http://www.w3.org/2000/svg" viewBox="0 0 24 24" width="24" height="24" fill="none">
  <path d="M12.7 16.9h1.1s.3 0 .5-.2c.2-.2.2-.5.2-.5s0-1.6.7-1.8c.7-.2 1.6 1.6 2.6 2.3.7.5 1.3.4 1.3.4l2.6 0s1.4-.1.7-1.2c-.1-.1-.6-1.2-3-3.4-2.5-2.3-2.2-2 0-5.2 1.4-2.1 2-3.4 1.8-3.9-.2-.5-1.1-.3-1.1-.3h-2.9s-.2 0-.4.1c-.2.1-.3.3-.3.3s-.5 1.4-1.2 2.6c-1.5 2.5-2.1 2.6-2.3 2.4-.6-.4-.5-1.7-.5-2.6 0-2.8.4-4-.8-4.3-.4-.1-.7-.2-1.8-.2-1.4 0-2.5 0-3.2.3-.4.2-.7.6-.5.6.3 0 .9.2 1.2.8.4.8.4 2.5.4 2.5s.2 3.3-.6 3.7c-.6.3-1.4-.3-2.5-2.4-.6-1.2-1.1-2.5-1.1-2.5s-.1-.2-.3-.3c-.2-.1-.4-.1-.4-.1H2.2s-.4 0-.5.2c-.1.2 0 .5 0 .5s1.9 4.4 4.1 6.7c2 2.1 4.3 2 4.3 2Z" fill="#E9F2FF"/>
</svg>